<svg xmlns="http://www.w3.org/2000/svg" width="1200" height="628" viewBox="0 0 1200 628"><rect width="100%" height="100%" fill="#323539"/><path fill="#FFFFFF" d="M297.155 356.5h20.54v14.62h-63.2V356.5h23.14v-66.59q0-3.95.24-8.14l-16.43 13.75q-1.42 1.1-2.81 1.38-1.38.28-2.6.04-1.23-.24-2.18-.83-.94-.59-1.42-1.3l-6.16-8.46 34.84-29.62h16.04v99.77Zm78.6-3.55h29.31q3.16 0 5.02 1.78 1.85 1.77 1.85 4.7v11.69h-78.36v-6.48q0-1.97.83-4.15.82-2.17 2.64-3.91l34.68-34.76q4.35-4.42 7.78-8.45 3.44-4.03 5.73-7.98 2.29-3.95 3.52-8.02 1.22-4.06 1.22-8.57 0-4.11-1.18-7.23-1.19-3.12-3.36-5.25t-5.21-3.2q-3.05-1.07-6.84-1.07-3.47 0-6.44.99-2.96.99-5.25 2.77-2.29 1.77-3.87 4.14-1.58 2.37-2.37 5.22-1.34 3.63-3.48 4.82-2.13 1.18-6.16.55l-10.27-1.82q1.19-8.21 4.58-14.41 3.4-6.21 8.5-10.35 5.09-4.15 11.69-6.24 6.59-2.1 14.18-2.1 7.9 0 14.45 2.33 6.56 2.33 11.22 6.6 4.66 4.26 7.27 10.27 2.61 6 2.61 13.35 0 6.32-1.86 11.69-1.86 5.37-4.98 10.27-3.12 4.9-7.3 9.48-4.19 4.58-8.77 9.32l-25.76 26.31q3.72-1.1 7.39-1.7 3.67-.59 6.99-.59ZM506.895 314q0 14.93-3.2 25.95-3.2 11.03-8.85 18.21-5.64 7.19-13.35 10.71-7.7 3.51-16.63 3.51-8.92 0-16.55-3.51-7.62-3.52-13.23-10.71-5.61-7.18-8.77-18.21-3.16-11.02-3.16-25.95 0-15.01 3.16-25.99 3.16-10.98 8.77-18.17 5.61-7.19 13.23-10.7 7.63-3.52 16.55-3.52 8.93 0 16.63 3.52 7.71 3.51 13.35 10.7 5.65 7.19 8.85 18.17 3.2 10.98 3.2 25.99Zm-20.14 0q0-12.4-1.82-20.54-1.82-8.13-4.86-12.95-3.04-4.82-6.99-6.76-3.95-1.93-8.22-1.93-4.18 0-8.09 1.93-3.91 1.94-6.92 6.76-3 4.82-4.78 12.95-1.77 8.14-1.77 20.54 0 12.41 1.77 20.54 1.78 8.14 4.78 12.96 3.01 4.82 6.92 6.75 3.91 1.94 8.09 1.94 4.27 0 8.22-1.94 3.95-1.93 6.99-6.75t4.86-12.96q1.82-8.13 1.82-20.54Zm111.78 0q0 14.93-3.2 25.95-3.2 11.03-8.85 18.21-5.64 7.19-13.35 10.71-7.7 3.51-16.63 3.51-8.92 0-16.55-3.51-7.62-3.52-13.23-10.71-5.61-7.18-8.77-18.21-3.16-11.02-3.16-25.95 0-15.01 3.16-25.99 3.16-10.98 8.77-18.17 5.61-7.19 13.23-10.7 7.63-3.52 16.55-3.52 8.93 0 16.63 3.52 7.71 3.51 13.35 10.7 5.65 7.19 8.85 18.17 3.2 10.98 3.2 25.99Zm-20.14 0q0-12.4-1.82-20.54-1.82-8.13-4.86-12.95-3.04-4.82-6.99-6.76-3.95-1.93-8.22-1.93-4.18 0-8.09 1.93-3.91 1.94-6.92 6.76-3 4.82-4.78 12.95-1.77 8.14-1.77 20.54 0 12.41 1.77 20.54 1.78 8.14 4.78 12.96 3.01 4.82 6.92 6.75 3.91 1.94 8.09 1.94 4.27 0 8.22-1.94 3.95-1.93 6.99-6.75t4.86-12.96q1.82-8.13 1.82-20.54Zm78.36 14.46 27.73 42.66h-18.8q-2.13 0-3.43-1.11-1.31-1.1-2.18-2.52l-17.14-28.21q-.4 1.35-.91 2.53-.51 1.19-1.14 2.21l-15.17 23.47q-.87 1.34-2.14 2.48-1.26 1.15-3.16 1.15h-17.45l27.8-41.79-26.7-39.26h18.8q2.14 0 3.16.59 1.03.59 1.82 1.93l16.99 27.02q.86-2.68 2.44-5.29l13.67-21.33q1.74-2.92 4.5-2.92h17.94l-26.63 38.39Zm103.34-71.57-33.89 41.47-3.95 4.9q3.31-1.66 7.15-2.57 3.83-.91 8.25-.91 6.48 0 12.6 2.14 6.12 2.13 10.78 6.43 4.67 4.31 7.51 10.71 2.84 6.4 2.84 14.93 0 7.98-2.92 14.97t-8.22 12.21q-5.29 5.21-12.75 8.21-7.47 3-16.48 3-9.16 0-16.43-2.92t-12.4-8.18q-5.14-5.25-7.86-12.64-2.73-7.38-2.73-16.39 0-8.06 3.28-16.55t10.15-17.66l27.26-36.57q1.42-1.9 4.15-3.24 2.72-1.34 6.28-1.34h17.38Zm-29.47 99.54q4.66 0 8.57-1.58t6.72-4.43q2.8-2.84 4.38-6.67 1.58-3.84 1.58-8.34 0-4.9-1.5-8.81t-4.27-6.63q-2.76-2.73-6.63-4.15-3.87-1.42-8.53-1.42-4.67 0-8.46 1.58-3.79 1.58-6.48 4.38-2.68 2.81-4.18 6.64-1.5 3.83-1.5 8.25 0 4.74 1.3 8.65 1.3 3.92 3.87 6.68 2.57 2.77 6.36 4.31 3.79 1.54 8.77 1.54Zm94.17-3.48h29.31q3.16 0 5.01 1.78 1.86 1.77 1.86 4.7v11.69h-78.37v-6.48q0-1.97.83-4.15.83-2.17 2.65-3.91l34.68-34.76q4.34-4.42 7.78-8.45 3.44-4.03 5.73-7.98 2.29-3.95 3.51-8.02 1.23-4.06 1.23-8.57 0-4.11-1.19-7.23-1.18-3.12-3.35-5.25-2.18-2.13-5.22-3.2-3.04-1.07-6.83-1.07-3.48 0-6.44.99-2.96.99-5.25 2.77-2.3 1.77-3.88 4.14-1.58 2.37-2.37 5.22-1.34 3.63-3.47 4.82-2.13 1.18-6.16.55l-10.27-1.82q1.18-8.21 4.58-14.41 3.4-6.21 8.49-10.35 5.1-4.15 11.69-6.24 6.6-2.1 14.18-2.1 7.9 0 14.46 2.33 6.56 2.33 11.22 6.6 4.66 4.26 7.27 10.27 2.6 6 2.6 13.35 0 6.32-1.85 11.69-1.86 5.37-4.98 10.27-3.12 4.9-7.31 9.48-4.18 4.58-8.77 9.32l-25.75 26.31q3.71-1.1 7.39-1.7 3.67-.59 6.99-.59Zm89.27 4.19q4.82 0 8.45-1.39 3.63-1.38 6.12-3.83t3.76-5.84q1.26-3.4 1.26-7.35 0-9.4-5.21-14.22-5.22-4.82-14.38-4.82-9.17 0-14.38 4.82-5.21 4.82-5.21 14.22 0 3.95 1.26 7.35 1.26 3.39 3.75 5.84 2.49 2.45 6.12 3.83 3.64 1.39 8.46 1.39Zm0-86.82q-4.35 0-7.51 1.34t-5.25 3.59q-2.09 2.26-3.08 5.18-.99 2.92-.99 6.16 0 3.4.83 6.6.83 3.2 2.8 5.68 1.98 2.49 5.22 3.99 3.24 1.51 7.98 1.51t7.98-1.51q3.24-1.5 5.21-3.99 1.98-2.48 2.81-5.68.82-3.2.82-6.6 0-3.24-1.02-6.16-1.03-2.92-3.08-5.18-2.06-2.25-5.22-3.59-3.16-1.34-7.5-1.34Zm19.27 41.23q10.43 3.4 15.41 10.39t4.98 17.11q0 7.58-2.89 13.74-2.88 6.16-8.1 10.51-5.21 4.34-12.52 6.71-7.3 2.37-16.15 2.37-8.85 0-16.16-2.37-7.31-2.37-12.52-6.71-5.21-4.35-8.1-10.51-2.88-6.16-2.88-13.74 0-10.12 4.98-17.11 4.97-6.99 15.4-10.39-8.29-3.47-12.44-9.87-4.15-6.4-4.15-15.41 0-6.47 2.65-12.08 2.64-5.61 7.38-9.76 4.74-4.15 11.34-6.48t14.5-2.33q7.9 0 14.49 2.33 6.6 2.33 11.34 6.48t7.39 9.76q2.64 5.61 2.64 12.08 0 9.01-4.14 15.41-4.15 6.4-12.45 9.87Z"/></svg>