<svg xmlns="http://www.w3.org/2000/svg" width="1200" height="628" viewBox="0 0 1200 628"><rect width="100%" height="100%" fill="#FFA500"/><path fill="#FFFFFF" d="M291.16 352.465h18.59v13.23h-57.2v-13.23h20.95v-60.27q0-3.58.21-7.37l-14.87 12.44q-1.28 1.01-2.54 1.26-1.25.25-2.36.03-1.1-.21-1.96-.75-.86-.54-1.29-1.18l-5.58-7.65 31.54-26.81h14.51v90.3Zm71.14-3.22h26.53q2.86 0 4.54 1.61 1.68 1.61 1.68 4.26v10.58h-70.93v-5.86q0-1.79.75-3.76.75-1.96 2.4-3.54l31.39-31.46q3.93-4 7.04-7.65 3.11-3.64 5.18-7.22 2.08-3.57 3.18-7.26 1.11-3.68 1.11-7.75 0-3.72-1.07-6.55-1.07-2.82-3.04-4.75-1.96-1.93-4.72-2.9-2.75-.96-6.18-.96-3.15 0-5.83.89-2.68.9-4.75 2.51-2.08 1.6-3.51 3.75-1.43 2.14-2.14 4.72-1.22 3.29-3.15 4.36-1.93 1.07-5.58.5l-9.29-1.64q1.07-7.44 4.15-13.05 3.07-5.62 7.68-9.37 4.61-3.75 10.58-5.65 5.97-1.89 12.84-1.89 7.15 0 13.08 2.11 5.94 2.11 10.16 5.97 4.21 3.86 6.57 9.29 2.36 5.44 2.36 12.08 0 5.72-1.68 10.59-1.68 4.86-4.5 9.29-2.83 4.43-6.61 8.58-3.79 4.15-7.94 8.44l-23.31 23.81q3.36-1 6.69-1.54 3.32-.54 6.32-.54Zm118.69-35.24q0 13.51-2.89 23.48-2.9 9.98-8.01 16.48-5.11 6.51-12.08 9.69-6.98 3.18-15.06 3.18-8.07 0-14.97-3.18t-11.98-9.69q-5.08-6.5-7.94-16.48-2.86-9.97-2.86-23.48 0-13.59 2.86-23.53 2.86-9.94 7.94-16.44 5.08-6.51 11.98-9.69 6.9-3.18 14.97-3.18 8.08 0 15.06 3.18 6.97 3.18 12.08 9.69 5.11 6.5 8.01 16.44 2.89 9.94 2.89 23.53Zm-18.23 0q0-11.23-1.64-18.59-1.65-7.37-4.4-11.73-2.75-4.36-6.33-6.11-3.57-1.76-7.44-1.76-3.78 0-7.32 1.76-3.54 1.75-6.26 6.11-2.72 4.36-4.33 11.73-1.6 7.36-1.6 18.59 0 11.22 1.6 18.59 1.61 7.36 4.33 11.72 2.72 4.36 6.26 6.11 3.54 1.76 7.32 1.76 3.87 0 7.44-1.76 3.58-1.75 6.33-6.11t4.4-11.72q1.64-7.37 1.64-18.59Zm101.17 0q0 13.51-2.89 23.48-2.9 9.98-8.01 16.48-5.11 6.51-12.08 9.69-6.98 3.18-15.06 3.18-8.07 0-14.97-3.18t-11.98-9.69q-5.08-6.5-7.94-16.48-2.86-9.97-2.86-23.48 0-13.59 2.86-23.53 2.86-9.94 7.94-16.44 5.08-6.51 11.98-9.69 6.9-3.18 14.97-3.18 8.08 0 15.06 3.18 6.97 3.18 12.08 9.69 5.11 6.5 8.01 16.44 2.89 9.94 2.89 23.53Zm-18.23 0q0-11.23-1.64-18.59-1.65-7.37-4.4-11.73-2.75-4.36-6.33-6.11-3.57-1.76-7.44-1.76-3.78 0-7.32 1.76-3.54 1.75-6.26 6.11-2.72 4.36-4.33 11.73-1.6 7.36-1.6 18.59 0 11.22 1.6 18.59 1.61 7.36 4.33 11.72 2.72 4.36 6.26 6.11 3.54 1.76 7.32 1.76 3.87 0 7.44-1.76 3.58-1.75 6.33-6.11t4.4-11.72q1.64-7.37 1.64-18.59Zm105.68 13.08 25.09 38.61h-17.01q-1.93 0-3.11-1t-1.97-2.29l-15.52-25.52q-.35 1.21-.82 2.28-.46 1.08-1.03 2.01l-13.73 21.23q-.79 1.22-1.93 2.25-1.15 1.04-2.86 1.04h-15.8l25.16-37.82-24.16-35.54h17.01q1.93 0 2.86.54.93.53 1.65 1.75l15.37 24.45q.79-2.43 2.22-4.79l12.37-19.3q1.57-2.65 4.07-2.65h16.23l-24.09 34.75Zm128.27-64.78-30.68 37.54-3.57 4.43q3-1.5 6.47-2.32 3.47-.82 7.47-.82 5.87 0 11.41 1.93t9.76 5.82q4.21 3.9 6.79 9.69 2.57 5.79 2.57 13.51 0 7.23-2.64 13.55-2.65 6.33-7.44 11.05-4.79 4.72-11.55 7.44-6.75 2.71-14.9 2.71-8.3 0-14.88-2.64-6.57-2.65-11.22-7.4-4.65-4.76-7.12-11.44-2.46-6.69-2.46-14.84 0-7.29 2.97-14.98 2.96-7.68 9.18-15.98l24.67-33.1q1.29-1.72 3.75-2.93 2.47-1.22 5.69-1.22h15.73Zm-26.67 90.09q4.22 0 7.76-1.43t6.07-4q2.54-2.58 3.97-6.04 1.43-3.47 1.43-7.55 0-4.43-1.36-7.97-1.35-3.54-3.86-6.01-2.5-2.46-6-3.75-3.51-1.29-7.73-1.29-4.21 0-7.65 1.43-3.43 1.43-5.86 3.97t-3.79 6.01q-1.36 3.46-1.36 7.47 0 4.29 1.18 7.83t3.51 6.04q2.32 2.5 5.75 3.9 3.43 1.39 7.94 1.39Zm85.23-3.15h26.52q2.86 0 4.54 1.61 1.68 1.61 1.68 4.26v10.58h-70.92v-5.86q0-1.79.75-3.76.75-1.96 2.39-3.54l31.39-31.46q3.93-4 7.04-7.65 3.11-3.64 5.19-7.22 2.07-3.57 3.18-7.26 1.11-3.68 1.11-7.75 0-3.72-1.08-6.55-1.07-2.82-3.03-4.75-1.97-1.93-4.72-2.9-2.76-.96-6.19-.96-3.14 0-5.83.89-2.68.9-4.75 2.51-2.07 1.6-3.5 3.75-1.43 2.14-2.15 4.72-1.21 3.29-3.14 4.36-1.94 1.07-5.58.5l-9.3-1.64q1.08-7.44 4.15-13.05 3.07-5.62 7.69-9.37 4.61-3.75 10.58-5.65 5.97-1.89 12.83-1.89 7.15 0 13.09 2.11 5.93 2.11 10.15 5.97 4.22 3.86 6.58 9.29 2.36 5.44 2.36 12.08 0 5.72-1.68 10.59-1.68 4.86-4.51 9.29-2.82 4.43-6.61 8.58-3.79 4.15-7.94 8.44l-23.31 23.81q3.36-1 6.69-1.54 3.32-.54 6.33-.54Zm80.79 3.79q4.36 0 7.65-1.25t5.54-3.46q2.26-2.22 3.4-5.3 1.14-3.07 1.14-6.65 0-8.5-4.72-12.87-4.71-4.36-13.01-4.36-8.29 0-13.01 4.36-4.72 4.37-4.72 12.87 0 3.58 1.14 6.65 1.15 3.08 3.4 5.3 2.25 2.21 5.54 3.46t7.65 1.25Zm0-78.57q-3.93 0-6.79 1.21-2.86 1.22-4.76 3.25-1.89 2.04-2.78 4.69-.9 2.64-.9 5.57 0 3.08.75 5.98.75 2.89 2.54 5.14 1.79 2.26 4.72 3.61 2.93 1.36 7.22 1.36 4.29 0 7.22-1.36 2.93-1.35 4.72-3.61 1.79-2.25 2.54-5.14.75-2.9.75-5.98 0-2.93-.93-5.57-.93-2.65-2.79-4.69-1.86-2.03-4.72-3.25-2.86-1.21-6.79-1.21Zm17.45 37.32q9.44 3.07 13.94 9.4t4.5 15.48q0 6.86-2.6 12.44-2.61 5.58-7.33 9.51-4.72 3.93-11.34 6.08-6.61 2.14-14.62 2.14-8.01 0-14.62-2.14-6.61-2.15-11.33-6.08t-7.33-9.51q-2.61-5.58-2.61-12.44 0-9.15 4.5-15.48 4.51-6.33 13.95-9.4-7.51-3.15-11.27-8.94-3.75-5.79-3.75-13.94 0-5.86 2.4-10.94 2.39-5.08 6.68-8.83 4.29-3.75 10.26-5.86 5.97-2.11 13.12-2.11 7.15 0 13.12 2.11 5.97 2.11 10.26 5.86 4.29 3.75 6.69 8.83 2.39 5.08 2.39 10.94 0 8.15-3.75 13.94-3.75 5.79-11.26 8.94Z"/></svg>